<svg width="48" height="48" viewBox="0 0 48 48" fill="none" xmlns="http://www.w3.org/2000/svg">
<circle opacity="0.1" cx="24" cy="24" r="24" fill="white"/>
<path d="M20.6846 28.0365C20.8916 28.1822 21.1387 28.2602 21.3918 28.2595C21.645 28.2589 21.8917 28.1798 22.098 28.033C22.3069 27.8804 22.4654 27.6691 22.5523 27.4249L23.077 25.8131C23.2113 25.4089 23.438 25.0416 23.7389 24.7403C24.0399 24.4389 24.4069 24.2118 24.8109 24.0769L26.4438 23.5486C26.6852 23.4612 26.8931 23.3003 27.0382 23.0885C27.1833 22.8766 27.2583 22.6246 27.2526 22.3679C27.2469 22.1112 27.1608 21.8628 27.0064 21.6576C26.8521 21.4524 26.6372 21.3009 26.3921 21.2243L24.778 20.6984C24.3736 20.5643 24.006 20.3378 23.7044 20.0368C23.4028 19.7358 23.1755 19.3687 23.0406 18.9645L22.51 17.3351C22.4246 17.0951 22.2664 16.8876 22.0576 16.7416C21.8488 16.5956 21.5996 16.5184 21.3448 16.5206C21.09 16.5227 20.8423 16.6043 20.636 16.7539C20.4297 16.9034 20.2752 17.1136 20.1939 17.3551L19.6574 18.9986C19.523 19.3918 19.301 19.7494 19.0082 20.0443C18.7153 20.3392 18.3593 20.5636 17.967 20.7007L16.3352 21.2255C16.0953 21.3111 15.8879 21.4693 15.742 21.6781C15.596 21.8869 15.5187 22.136 15.5208 22.3908C15.5229 22.6456 15.6042 22.8934 15.7535 23.0998C15.9028 23.3062 16.1127 23.461 16.354 23.5428L17.967 24.0652C18.3731 24.2002 18.7419 24.4286 19.0438 24.7319C19.3457 25.0353 19.5724 25.4052 19.7055 25.8119L20.2361 27.4449C20.3207 27.6843 20.478 27.8909 20.6846 28.0365ZM27.8889 32.7815C28.0089 32.8659 28.147 32.9212 28.2922 32.9431C28.4373 32.9649 28.5856 32.9527 28.7252 32.9074C28.8648 32.862 28.992 32.7849 29.0966 32.6819C29.2012 32.579 29.2805 32.4531 29.3281 32.3142L29.6192 31.4197C29.6819 31.2342 29.7863 31.0655 29.9244 30.9267C30.063 30.7858 30.232 30.6825 30.4175 30.6215L31.3237 30.3256C31.5107 30.2611 31.6726 30.1391 31.7862 29.9772C31.8998 29.8152 31.9594 29.6215 31.9564 29.4237C31.9534 29.2259 31.888 29.0341 31.7695 28.8756C31.6511 28.7171 31.4856 28.6001 31.2967 28.5413L30.3999 28.2478C30.2142 28.1861 30.0455 28.0821 29.9069 27.9439C29.7684 27.8058 29.6639 27.6374 29.6016 27.4519L29.3058 26.5445C29.2423 26.3578 29.1216 26.1959 28.9609 26.0817C28.8003 25.9674 28.6077 25.9067 28.4105 25.908C28.2134 25.9092 28.0217 25.9726 27.8625 26.0889C27.7033 26.2053 27.5848 26.3687 27.5238 26.5562L27.2338 27.4507C27.1741 27.6348 27.0725 27.8026 26.937 27.9409C26.8016 28.0792 26.636 28.1842 26.4532 28.2478L25.5457 28.5436C25.359 28.6069 25.197 28.7274 25.0825 28.8879C24.9681 29.0484 24.907 29.2409 24.9081 29.438C24.9091 29.6352 24.9722 29.827 25.0883 29.9863C25.2044 30.1456 25.3678 30.2643 25.5551 30.3256L26.4508 30.6156C26.6387 30.679 26.8077 30.7835 26.9462 30.922C27.0859 31.0617 27.1892 31.2307 27.2491 31.4174L27.5461 32.326C27.6104 32.5097 27.7302 32.6688 27.8889 32.7815Z" fill="white"/>
</svg>
