<svg width="48" height="48" viewBox="0 0 48 48" fill="none" xmlns="http://www.w3.org/2000/svg">
<circle opacity="0.1" cx="24" cy="24" r="24" fill="white"/>
<path d="M34.908 17.8263C34.7914 17.5006 34.5681 17.2418 34.2872 17.1066C34.149 17.0383 34.0006 17.0021 33.8503 17H28.102C27.7971 17 27.5047 17.1404 27.2891 17.3903C27.0735 17.6403 26.9523 17.9792 26.9523 18.3327C26.9523 18.6861 27.0735 19.0251 27.2891 19.275C27.5047 19.525 27.7971 19.6654 28.102 19.6654H31.0796L24.653 27.1151L20.8706 22.7172C20.7637 22.5923 20.6366 22.4932 20.4965 22.4255C20.3564 22.3579 20.2061 22.323 20.0543 22.323C19.9026 22.323 19.7523 22.3579 19.6122 22.4255C19.4721 22.4932 19.3449 22.5923 19.2381 22.7172L12.3401 30.7134C12.2323 30.8373 12.1468 30.9847 12.0884 31.1471C12.0301 31.3095 12 31.4837 12 31.6596C12 31.8355 12.0301 32.0097 12.0884 32.1721C12.1468 32.3345 12.2323 32.4819 12.3401 32.6058C12.4469 32.7307 12.5741 32.8298 12.7142 32.8975C12.8543 32.9652 13.0046 33 13.1563 33C13.3081 33 13.4584 32.9652 13.5985 32.8975C13.7386 32.8298 13.8657 32.7307 13.9726 32.6058L20.0543 25.5425L23.8367 29.9404C23.9436 30.0653 24.0708 30.1645 24.2109 30.2321C24.351 30.2998 24.5012 30.3346 24.653 30.3346C24.8048 30.3346 24.955 30.2998 25.0951 30.2321C25.2352 30.1645 25.3624 30.0653 25.4693 29.9404L32.7007 21.5445V24.9961C32.7007 25.3496 32.8218 25.6886 33.0374 25.9385C33.253 26.1884 33.5454 26.3288 33.8503 26.3288C34.1552 26.3288 34.4477 26.1884 34.6633 25.9385C34.8789 25.6886 35 25.3496 35 24.9961V18.3327C34.9982 18.1585 34.9669 17.9865 34.908 17.8263Z" fill="white"/>
</svg>
