<svg width="128" height="32" viewBox="0 0 128 32" fill="none" xmlns="http://www.w3.org/2000/svg">
<path fill-rule="evenodd" clip-rule="evenodd" d="M0 13.8667C0 6.20832 6.20832 0 13.8667 0C21.525 0 27.7333 6.20832 27.7333 13.8667V32H20.2667H12.8H0V23.4667V18.6667V13.8667ZM2.13333 23.4667V29.8667H10.6667V23.4667C10.6667 21.1103 8.75642 19.2 6.4 19.2C4.04359 19.2 2.13333 21.1103 2.13333 23.4667ZM12.8 29.8667V23.4667C12.8 19.932 9.93462 17.0667 6.4 17.0667C4.76084 17.0667 3.26561 17.6829 2.13333 18.6963V18.6667C2.13333 14.2484 5.71506 10.6667 10.1333 10.6667C14.5516 10.6667 18.1333 14.2484 18.1333 18.6667V29.8667H12.8ZM25.6 29.8667H20.2667V18.6667C20.2667 13.0702 15.7298 8.53333 10.1333 8.53333C6.94016 8.53333 4.09195 10.0103 2.23459 12.3183C2.99238 6.57 7.9114 2.13333 13.8667 2.13333C20.3468 2.13333 25.6 7.38653 25.6 13.8667V29.8667Z" fill="black"/>
<path d="M68.357 22.9075H70.7539V9.06641H68.357V22.9075Z" fill="black"/>
<path fill-rule="evenodd" clip-rule="evenodd" d="M63.7947 20.6333C63.2202 21.1627 62.2496 21.3979 61.1601 21.3979C59.5556 21.3979 58.3077 20.8882 57.8323 19.8295C57.6738 19.5159 57.5946 19.1826 57.555 18.7709H66.865C66.865 17.6142 66.7065 16.7123 66.35 15.8497C65.5378 14.0657 63.6758 12.9874 61.0017 12.9874C58.3671 12.9874 56.4061 13.9873 55.5939 15.8105C55.2968 16.4771 55.1383 17.2025 55.1383 18.1043C55.1383 18.9669 55.277 19.7119 55.5939 20.3589C56.4061 22.1821 58.4067 23.2016 61.1403 23.2016C62.9429 23.2016 64.5474 22.7899 65.6171 21.8292C66.0785 21.4141 66.4116 20.9305 66.6164 20.3579H64.0553C63.9783 20.4573 63.8911 20.5499 63.7947 20.6333ZM61.0017 14.8107C62.5269 14.8107 63.7154 15.2812 64.2107 16.3595C64.3097 16.5947 64.3889 16.8104 64.4286 17.0848H57.5946C57.6342 16.8496 57.7134 16.6339 57.8125 16.4183C58.3077 15.3204 59.4368 14.8107 61.0017 14.8107Z" fill="black"/>
<path d="M82.5251 21.79C81.4753 22.7115 79.95 23.2016 78.088 23.2016C75.5525 23.2016 73.5914 22.241 72.7595 20.3981C72.4624 19.7315 72.3039 18.9669 72.3039 18.0847C72.3039 17.2221 72.4624 16.4379 72.7595 15.7909C73.5914 13.9873 75.5129 12.9874 78.088 12.9874C79.95 12.9874 81.4554 13.4579 82.5053 14.4186C83.2778 15.0851 83.6938 15.9674 83.7532 17.026H81.1979C81.1385 16.4575 80.9008 16.0066 80.5443 15.6733C79.9896 15.1832 79.0982 14.9675 78.1078 14.9675C76.6618 14.9675 75.5723 15.5164 75.0969 16.5163C74.9186 16.9672 74.8196 17.4377 74.8196 18.0847C74.8196 18.7121 74.9186 19.2022 75.0969 19.6335C75.5723 20.6333 76.6618 21.1823 78.1078 21.1823C79.0982 21.1823 80.0094 20.9666 80.5443 20.4569C80.9404 20.1236 81.1781 19.6531 81.1979 19.1042H83.7929C83.7136 20.1824 83.2977 21.0843 82.5251 21.79Z" fill="black"/>
<path fill-rule="evenodd" clip-rule="evenodd" d="M91.0263 23.182C93.7995 23.182 95.7012 22.1233 96.5133 20.3393C96.8104 19.6727 96.9689 18.9277 96.9689 18.0847C96.9689 17.2613 96.8104 16.5163 96.5133 15.8497C95.7012 14.0657 93.7995 12.9874 91.0263 12.9874C88.2729 12.9874 86.3713 14.0657 85.5394 15.8889C85.2422 16.5359 85.1036 17.2809 85.1036 18.0847C85.1036 18.9081 85.2422 19.6335 85.5394 20.3001C86.3713 22.1037 88.2729 23.182 91.0263 23.182ZM91.0263 21.2215C89.5209 21.2215 88.372 20.6529 87.8768 19.5943C87.6985 19.163 87.5995 18.6728 87.5995 18.0847C87.5995 17.5162 87.6985 17.0064 87.8768 16.5947C88.372 15.536 89.5209 14.9675 91.0263 14.9675C92.5318 14.9675 93.7005 15.5164 94.1957 16.5947C94.374 17.0064 94.4532 17.5162 94.4532 18.0847C94.4532 18.6728 94.374 19.163 94.1957 19.5943C93.7005 20.6529 92.5318 21.2215 91.0263 21.2215Z" fill="black"/>
<path fill-rule="evenodd" clip-rule="evenodd" d="M122.294 21.3979C123.383 21.3979 124.354 21.1627 124.928 20.6333C125.025 20.5499 125.112 20.4573 125.189 20.3579H127.75C127.545 20.9305 127.212 21.4141 126.751 21.8292C125.681 22.7899 124.077 23.2016 122.274 23.2016C119.54 23.2016 117.54 22.1821 116.728 20.3589C116.411 19.7119 116.272 18.9669 116.272 18.1043C116.272 17.2025 116.431 16.4771 116.728 15.8105C117.54 13.9873 119.501 12.9874 122.135 12.9874C124.81 12.9874 126.672 14.0657 127.484 15.8497C127.84 16.7123 127.999 17.6142 127.999 18.7709H118.689C118.728 19.1826 118.808 19.5159 118.966 19.8295C119.441 20.8882 120.689 21.3979 122.294 21.3979ZM125.344 16.3595C124.849 15.2812 123.661 14.8107 122.135 14.8107C120.571 14.8107 119.441 15.3204 118.946 16.4183C118.847 16.6339 118.768 16.8496 118.728 17.0848H125.562C125.523 16.8104 125.443 16.5947 125.344 16.3595Z" fill="black"/>
<path d="M103.164 13.0078C100.577 13.0078 98.48 15.1062 98.48 17.6948V22.9145H100.928V17.1755C100.928 15.9401 101.929 14.9785 103.164 14.9785C104.398 14.9785 105.399 15.9401 105.399 17.1755V22.9145H107.847V17.1755C107.847 15.9401 108.848 14.9785 110.082 14.9785C111.317 14.9785 112.318 15.9401 112.318 17.1755V22.9145H114.766V17.6948C114.766 15.1062 112.669 13.0078 110.082 13.0078C108.712 13.0078 107.479 13.5966 106.623 14.5352C105.767 13.5966 104.534 13.0078 103.164 13.0078Z" fill="black"/>
<path d="M49.6743 20.1668L52.2015 13.2709H54.7679L50.8889 22.89H48.4596L46.0499 16.1507L43.6403 22.89H41.211L37.332 13.2709H39.8984L42.4256 20.1864L44.8353 13.2709H47.245L49.6743 20.1668Z" fill="black"/>
</svg>
