<svg width="48" height="48" viewBox="0 0 48 48" fill="none" xmlns="http://www.w3.org/2000/svg">
<circle opacity="0.1" cx="24" cy="24" r="24" fill="white"/>
<path d="M24 25.7187C23.8333 25.7187 23.677 25.6929 23.5312 25.6412C23.3854 25.5895 23.25 25.5008 23.125 25.375L17.375 19.625C17.1458 19.3958 17.0258 19.1091 17.015 18.765C17.0041 18.4208 17.1241 18.1241 17.375 17.875C17.6041 17.6458 17.8958 17.5312 18.25 17.5312C18.6041 17.5312 18.8958 17.6458 19.125 17.875L24 22.7187L28.875 17.875C29.1041 17.6458 29.3908 17.5262 29.735 17.5162C30.0791 17.5062 30.3758 17.6258 30.625 17.875C30.8541 18.1041 30.9687 18.3958 30.9687 18.75C30.9687 19.1041 30.8541 19.3958 30.625 19.625L24.875 25.375C24.75 25.5 24.6145 25.5887 24.4687 25.6412C24.3229 25.6937 24.1666 25.7195 24 25.7187ZM24 33.2187C23.8333 33.2187 23.677 33.1929 23.5312 33.1412C23.3854 33.0895 23.25 33.0008 23.125 32.8749L17.375 27.125C17.1458 26.8958 17.0258 26.6095 17.015 26.2662C17.0041 25.9229 17.1241 25.6258 17.375 25.375C17.6041 25.1458 17.8958 25.0312 18.25 25.0312C18.6041 25.0312 18.8958 25.1458 19.125 25.375L24 30.2187L28.875 25.375C29.1041 25.1458 29.3908 25.0258 29.735 25.015C30.0791 25.0041 30.3758 25.1241 30.625 25.375C30.8541 25.6041 30.9687 25.8958 30.9687 26.25C30.9687 26.6041 30.8541 26.8958 30.625 27.125L24.875 32.8749C24.75 32.9999 24.6145 33.0887 24.4687 33.1412C24.3229 33.1937 24.1666 33.2195 24 33.2187Z" fill="white"/>
</svg>
