<svg width="54" height="54" viewBox="0 0 54 54" fill="none" xmlns="http://www.w3.org/2000/svg">
<path d="M5.4225 13.5003V13.5C5.4225 11.2433 7.24852 9.4 9.5 9.4H45.5C47.7541 9.4 49.6 11.2459 49.6 13.5V28.85H45.9V18V17.2783L45.288 17.6608L27.5 28.7783L9.712 17.6608L9.1 17.2783V18V40.5V40.9H9.5H27.1V44.6H9.5C7.24591 44.6 5.4 42.7541 5.4 40.5L5.4225 13.5003ZM27.288 25.0892L27.5 25.2217L27.712 25.0892L45.712 13.8392L46.8947 13.1H45.5H9.5H8.10528L9.288 13.8392L27.288 25.0892ZM39.7753 43.4153L49.0345 34.1562L51.6823 36.767L39.515 48.9343L32.1157 41.535L34.7225 38.9282L39.2097 43.4153L39.4925 43.6982L39.7753 43.4153Z" fill="#FEFAF4" stroke="#8087BD" stroke-width="0.8"/>
</svg>
