<svg width="56" height="56" viewBox="0 0 56 56" fill="none" xmlns="http://www.w3.org/2000/svg">
<g clip-path="url(#clip0_1515_14737)">
<path d="M32.6668 18.6666H10.8891C10.4765 18.6666 10.0808 18.5027 9.78911 18.211C9.49738 17.9193 9.3335 17.5236 9.3335 17.111V10.8888C9.3335 10.4762 9.49738 10.0806 9.78911 9.78886C10.0808 9.49714 10.4765 9.33325 10.8891 9.33325H32.6668C33.0794 9.33325 33.4751 9.49714 33.7668 9.78886C34.0585 10.0806 34.2224 10.4762 34.2224 10.8888V17.111C34.2224 17.5236 34.0585 17.9193 33.7668 18.211C33.4751 18.5027 33.0794 18.6666 32.6668 18.6666ZM12.4446 15.5555H31.1113V12.351H12.4446V15.5555Z" fill="#FFFBF5" stroke="#8087BD" stroke-width="0.5"/>
<path d="M32.6668 21.9023H10.8891C10.4765 21.9023 10.0808 22.0662 9.78911 22.358C9.49738 22.6497 9.3335 23.0453 9.3335 23.4579V29.5557C9.3335 29.9682 9.49738 30.3639 9.78911 30.6556C10.0808 30.9473 10.4765 31.1112 10.8891 31.1112H28.5602L34.2224 25.3557V23.4579C34.2224 23.0453 34.0585 22.6497 33.7668 22.358C33.4751 22.0662 33.0794 21.9023 32.6668 21.9023ZM31.1113 28.0001H12.4446V24.889H31.1113V28.0001Z" fill="#FFFBF5" stroke="#8087BD" stroke-width="0.5"/>
<path d="M17.2047 49.0155V48.9222L17.7024 46.76H6.22244V6.22219H37.3336V22.1666L40.4447 19.2266V4.66664C40.4447 4.25408 40.2808 3.85842 39.9891 3.5667C39.6973 3.27497 39.3017 3.11108 38.8891 3.11108H4.66688C4.25432 3.11108 3.85866 3.27497 3.56694 3.5667C3.27522 3.85842 3.11133 4.25408 3.11133 4.66664V48.2222C3.11133 48.6348 3.27522 49.0304 3.56694 49.3221C3.85866 49.6139 4.25432 49.7777 4.66688 49.7777H17.1113C17.1241 49.5218 17.1553 49.267 17.2047 49.0155Z" fill="#FFFBF5" stroke="#8087BD" stroke-width="0.5"/>
<path d="M34.2221 29.8201L33.0088 31.049C33.3098 30.9869 33.5857 30.8371 33.8017 30.6184C34.0176 30.3996 34.1639 30.1219 34.2221 29.8201Z" fill="#FFFBF5" stroke="#8087BD" stroke-width="0.5"/>
<path d="M9.3335 41.9066C9.3335 42.3192 9.49738 42.7148 9.78911 43.0066C10.0808 43.2983 10.4765 43.4622 10.8891 43.4622H18.4179L18.8846 41.4399L19.0868 40.5844V40.5066H12.4446V37.3333H22.3068L25.4179 34.2222H10.8891C10.4765 34.2222 10.0808 34.3861 9.78911 34.6778C9.49738 34.9695 9.3335 35.3652 9.3335 35.7777V41.9066Z" fill="#FFFBF5" stroke="#8087BD" stroke-width="0.5"/>
<path d="M52.0957 25.9311L46.8535 20.6888C46.6208 20.4556 46.3444 20.2705 46.0401 20.1442C45.7358 20.0179 45.4096 19.9529 45.0801 19.9529C44.7507 19.9529 44.4244 20.0179 44.1201 20.1442C43.8158 20.2705 43.5394 20.4556 43.3068 20.6888L21.9801 42.14L20.2224 49.6222C20.1565 49.945 20.1551 50.2776 20.218 50.6009C20.2809 50.9243 20.4071 51.2321 20.5891 51.5066C20.7712 51.7812 21.0056 52.0171 21.279 52.2009C21.5524 52.3847 21.8594 52.5128 22.1824 52.5777C22.3427 52.5938 22.5042 52.5938 22.6646 52.5777C22.8552 52.6088 23.0495 52.6088 23.2401 52.5777L30.7846 50.9133L52.0957 29.5555C52.3285 29.3242 52.5133 29.0491 52.6393 28.7461C52.7654 28.4431 52.8303 28.1181 52.8303 27.79C52.8303 27.4618 52.7654 27.1368 52.6393 26.8338C52.5133 26.5308 52.3285 26.2557 52.0957 26.0244V25.9311ZM29.1979 48.0822L23.5046 49.3422L24.889 43.6955L40.8801 27.5333L45.2668 31.92L29.1979 48.0822ZM47.0246 30.1622L42.6379 25.7755L45.1112 23.3333L49.529 27.7511L47.0246 30.1622Z" fill="#FFFBF5" stroke="#8087BD" stroke-width="0.5"/>
<path d="M0 0H56V56H0V0Z" stroke="#8087BD" stroke-width="0.5"/>
</g>
<defs>
<clipPath id="clip0_1515_14737">
<rect width="56" height="56" fill="white"/>
</clipPath>
</defs>
</svg>
