<svg width="115" height="84" viewBox="0 0 115 84" fill="none" xmlns="http://www.w3.org/2000/svg">
<rect x="83.1001" y="1.5" width="81" height="52.2" rx="10.5" transform="rotate(90 83.1001 1.5)" stroke="#FFFBF5" stroke-width="3"/>
<rect opacity="0.3" x="10.5" y="75.3" width="61.8" height="11" rx="5.5" transform="rotate(-90 10.5 75.3)" stroke="#FFFBF5" stroke-width="3"/>
<path opacity="0.3" d="M113 27L113 62" stroke="#FFFBF5" stroke-width="3" stroke-linecap="round"/>
<path opacity="0.3" d="M2 27L2 62" stroke="#FFFBF5" stroke-width="3" stroke-linecap="round"/>
<rect opacity="0.3" x="92.5" y="75.3" width="61.8" height="11" rx="5.5" transform="rotate(-90 92.5 75.3)" stroke="#FFFBF5" stroke-width="3"/>
<path d="M48.7284 33.1212C48.7047 30.7866 51.3807 29.4501 53.2329 30.8715L64.0911 39.2044C65.5515 40.3252 65.5515 42.5262 64.0911 43.6469L53.2329 51.9798C51.3807 53.4013 48.7047 52.0648 48.7284 49.7301L48.8127 41.4257L48.7284 33.1212Z" fill="#FFFBF5"/>
</svg>
