<svg width="622" height="124" viewBox="0 0 622 124" fill="none" xmlns="http://www.w3.org/2000/svg">
<g clip-path="url(#clip0_1864_17837)">
<path d="M142.7 76.7418L135.526 76.1068C129.895 75.6538 127.716 73.3828 127.716 69.5678C127.716 65.0278 131.167 62.2108 137.706 62.2108C142.338 62.2108 146.424 63.3018 149.606 65.7538L153.875 61.4848C149.875 58.2158 144.156 56.6728 137.8 56.6728C128.264 56.6728 121.361 61.5728 121.361 69.7498C121.361 77.1058 125.994 81.0108 134.712 81.7378L142.068 82.3728C147.244 82.8278 149.515 85.0068 149.515 88.9118C149.515 94.1798 144.974 96.8118 137.615 96.8118C132.074 96.8118 127.261 95.3588 123.715 91.6348L119.355 95.9948C124.26 100.717 130.163 102.443 137.701 102.443C148.508 102.443 155.865 97.4428 155.865 88.8208C155.865 80.4628 150.506 77.4678 142.695 76.7398L142.7 76.7418ZM198.613 56.6708C191.444 56.6708 186.928 58.0838 182.971 63.0938C182.917 63.1628 187.261 67.3858 187.261 67.3858C189.894 63.6628 192.8 62.3018 198.521 62.3018C206.695 62.3018 209.965 65.5708 209.965 72.1088V76.3768H196.527C186.537 76.3768 181.089 81.4638 181.089 89.2768C180.984 92.6261 182.189 95.8843 184.449 98.3588C187.265 101.266 190.897 102.446 197.072 102.446C203.066 102.446 206.336 101.266 209.972 97.6318V101.9H216.511V71.5648C216.511 61.8478 210.611 56.6728 198.62 56.6728L198.613 56.6708ZM209.969 86.0998C209.969 89.8248 209.242 92.3678 207.698 93.8198C204.883 96.5448 201.523 96.8198 197.709 96.8198C190.625 96.8198 187.445 94.3668 187.445 89.1898C187.445 84.0128 190.715 81.2898 197.437 81.2898H209.969V86.0998ZM242.118 62.4888C246.386 62.4888 249.018 63.7598 252.38 67.4828C252.38 67.4828 256.758 63.2278 256.722 63.1898C252.137 58.2848 248.245 56.6768 242.122 56.6768C230.86 56.6768 222.322 64.3048 222.322 79.5618C222.322 94.8188 230.858 102.449 242.122 102.449C248.297 102.449 252.202 100.813 256.834 95.8188L252.384 91.5498C249.024 95.2738 246.39 96.6358 242.122 96.6358C238.033 96.7992 234.139 94.886 231.769 91.5498C229.68 88.6438 228.863 85.1928 228.863 79.5618C228.863 73.9308 229.68 70.4798 231.769 67.5738C234.138 64.2372 238.033 62.3241 242.122 62.4888H242.118ZM298.122 57.1548H289.97L269.71 76.8748L269.741 37.2358H263.2V101.9H269.74L269.709 85.5908L277.64 77.6318L292.628 101.9H300.71L282.17 73.0998L298.122 57.1548ZM328.335 56.0548C321.635 56.0548 317.108 58.6658 314.322 61.6248C310.231 65.8898 309.187 71.0248 309.187 79.2068C309.187 87.4748 310.231 92.6068 314.322 96.8758C317.108 99.8348 321.633 102.447 328.335 102.447C335.037 102.447 339.651 99.8348 342.435 96.8758C346.526 92.6108 347.571 87.4758 347.571 79.2068C347.571 71.0258 346.526 65.8898 342.435 61.6248C339.651 58.6658 335.035 56.0548 328.335 56.0548ZM333.645 90.2608C332.226 91.6311 330.305 92.3547 328.335 92.2608C326.391 92.3549 324.497 91.6294 323.113 90.2608C320.762 87.9108 320.502 83.9078 320.502 79.2068C320.502 74.5058 320.762 70.5908 323.113 68.2408C324.497 66.872 326.391 66.1465 328.335 66.2408C330.305 66.1465 332.227 66.8702 333.645 68.2408C335.994 70.5908 336.256 74.5068 336.256 79.2068C336.256 83.9068 335.994 87.9068 333.645 90.2608ZM377.7 56.5748L368.562 84.5998L359.336 56.5728H347.41L364.123 101.92H373L389.623 56.5728L377.7 56.5748ZM408.873 56.0528C397.124 56.0528 389.116 64.4078 389.116 79.2048C389.116 97.5708 399.387 102.445 410.092 102.445C418.274 102.445 422.714 99.9198 427.326 95.3058L420.451 88.6058C417.578 91.4788 415.14 92.8708 410.179 92.8708C403.825 92.8708 400.257 88.6058 400.257 82.7708H428.631V77.7258C428.631 65.2788 421.494 56.0528 408.873 56.0528ZM400.257 75.0268C400.274 73.3484 400.629 71.6906 401.302 70.1528C402.728 67.2747 405.662 65.4537 408.874 65.4537C412.087 65.4537 415.021 67.2747 416.447 70.1528C417.118 71.6912 417.473 73.3487 417.491 75.0268H400.257ZM445.322 60.9268V56.5748H434.267V101.922H445.582V74.5928C445.582 68.8478 449.412 66.2358 452.894 66.2358C455.189 66.1566 457.391 67.1403 458.864 68.9018L467.43 60.3178C464.296 57.1838 461.163 56.0528 456.724 56.0528C452.408 56.0017 448.269 57.771 445.324 60.9268H445.322ZM470.941 51.8478V101.876H482.255V66.1218H490.611V57.5058H482.255V52.5448C482.255 49.9338 483.562 48.4538 486.255 48.4538H490.607V38.8808H484.167C474.939 38.8808 470.937 45.4078 470.937 51.8478H470.941ZM537.191 56.0478C530.491 56.0478 525.963 58.6588 523.178 61.6178C519.088 65.8828 518.043 71.0178 518.043 79.1998C518.043 87.4678 519.088 92.5998 523.178 96.8688C525.963 99.8278 530.489 102.44 537.191 102.44C543.893 102.44 548.507 99.8278 551.291 96.8688C555.381 92.6038 556.426 87.4688 556.426 79.1998C556.426 71.0188 555.381 65.8828 551.291 61.6178C548.506 58.6588 543.891 56.0478 537.191 56.0478ZM542.501 90.2538C541.082 91.624 539.161 92.3477 537.191 92.2538C535.247 92.3478 533.353 91.6224 531.969 90.2538C529.619 87.9038 529.358 83.9008 529.358 79.1998C529.358 74.4988 529.619 70.5838 531.969 68.2338C533.353 66.865 535.247 66.1395 537.191 66.2338C539.161 66.1395 541.083 66.8632 542.501 68.2338C544.85 70.5838 545.112 74.4998 545.112 79.1998C545.112 83.8998 544.85 87.8998 542.501 90.2538ZM609.883 56.5698L602.573 84.5998L593.26 56.5748H584.993L575.765 84.5998L568.455 56.5728H556.444L570.37 101.92H579.683L589.17 73.4598L598.657 101.92H607.97L621.809 56.5728L609.883 56.5698ZM507.3 88.2568V38.8808H495.989V88.9528C495.989 95.3938 499.907 101.922 509.219 101.922H515.659V92.3468H511.308C508.436 92.3468 507.308 90.9548 507.308 88.2568H507.3ZM174 64.2458L180.046 58.1998H167.666V43.4998H161.127V89.9118C161.127 96.5408 164.941 101.9 172.57 101.9H177.2V96.2688H173.75C169.573 96.2688 167.666 93.8158 167.666 89.7298V64.2458H174Z" fill="#171515"/>
<path fill-rule="evenodd" clip-rule="evenodd" d="M88 80H99V124H0V80H11V113H88V80Z" fill="#171515"/>
<path d="M22.9879 76.7299L77.0129 88.0849L79.2839 77.2849L25.2589 65.9249L22.9879 76.7299ZM30.1369 50.8609L80.1829 74.1689L84.8449 64.1599L34.7979 40.8519L30.1369 50.8609ZM43.9849 26.3079L86.4129 61.6389L93.4789 53.1539L51.0509 17.8239L43.9849 26.3079ZM71.3719 0.191895L62.5119 6.78189L95.4599 51.0819L104.32 44.4929L71.3719 0.191895ZM22 102H77V90.9999H22V102Z" fill="#171515"/>
</g>
<defs>
<clipPath id="clip0_1864_17837">
<rect width="622" height="124" fill="white"/>
</clipPath>
</defs>
</svg>
