<svg width="48" height="48" viewBox="0 0 48 48" fill="none" xmlns="http://www.w3.org/2000/svg">
<circle opacity="0.1" cx="24" cy="24" r="24" fill="white"/>
<path d="M31.6278 27.4581C32.0387 26.3769 32.2617 25.2194 32.2617 23.9475C32.2617 23.0316 32.1326 22.154 31.9096 21.3399C31.1465 21.5307 30.3483 21.6325 29.5148 21.6325C27.8079 21.6344 26.1256 21.1918 24.6096 20.3417C23.0937 19.4916 21.7886 18.2591 20.8043 16.7481C19.7515 19.5085 17.7652 21.7289 15.2517 22.9553C15.2048 23.2733 15.2048 23.6167 15.2048 23.9475C15.2048 25.1618 15.4255 26.3643 15.8544 27.4862C16.2833 28.6081 16.9119 29.6276 17.7044 30.4862C19.3049 32.2204 21.4757 33.1947 23.7391 33.1947C24.9717 33.1947 26.1574 32.9021 27.2257 32.3806C27.8948 33.7671 28.2 34.454 28.1765 34.454C26.2513 35.1535 24.7604 35.497 23.7391 35.497C20.8983 35.497 18.1865 34.2886 16.1909 32.1135C14.977 30.8023 14.0747 29.1918 13.5613 27.4199H12V21.6325H13.2796C13.6672 19.5878 14.5585 17.695 15.8589 16.1548C17.1592 14.6147 18.8201 13.4847 20.6653 12.8848C22.5105 12.2849 24.4711 12.2374 26.3392 12.7474C28.2073 13.2573 29.9131 14.3058 31.2757 15.7814C32.755 17.378 33.7641 19.4143 34.1752 21.6325H35.4783V27.4199H35.4078L31.2287 31.5793L25.007 30.8161V28.6919H30.677L31.6278 27.4581ZM20.5343 23.6549C20.8865 23.6549 21.227 23.8075 21.4735 24.0874C21.7212 24.358 21.8602 24.7238 21.8602 25.1049C21.8602 25.4861 21.7212 25.8519 21.4735 26.1225C21.227 26.3896 20.8865 26.5423 20.5343 26.5423C19.7948 26.5423 19.1961 25.9063 19.1961 25.1049C19.1961 24.3036 19.7948 23.6549 20.5343 23.6549ZM26.9322 23.6549C27.6717 23.6549 28.2587 24.3036 28.2587 25.1049C28.2587 25.9063 27.6717 26.5423 26.9322 26.5423C26.1926 26.5423 25.5939 25.9063 25.5939 25.1049C25.5939 24.7204 25.7349 24.3515 25.9859 24.0796C26.2369 23.8077 26.5772 23.6549 26.9322 23.6549Z" fill="white"/>
</svg>
