<svg width="54" height="54" viewBox="0 0 54 54" fill="none" xmlns="http://www.w3.org/2000/svg">
<g clip-path="url(#clip0_1515_14732)">
<path d="M13.5 26.115V40.5H27.885L24.885 37.5H16.5V29.115L13.5 26.115Z" fill="#FEFBF5"/>
<path d="M52.305 48.4349L48 44.0699V47.9999H6.00003V41.7749H9.00002V39.3749H6.00003V29.3999H9.00002V26.9999H6.00003V17.3999H9.00002V14.9999H6.00003V6.61493L29.91 30.3899V26.1599L5.56503 1.93493C5.35522 1.72339 5.08717 1.57912 4.79505 1.52052C4.50293 1.46191 4.19997 1.49163 3.9248 1.60588C3.64964 1.72013 3.41473 1.91374 3.25003 2.16201C3.08533 2.41029 2.99829 2.702 3.00003 2.99993V49.4999C3.00003 49.8978 3.15806 50.2793 3.43937 50.5606C3.72067 50.8419 4.1022 50.9999 4.50003 50.9999H51.24C51.538 51.0017 51.8297 50.9146 52.0779 50.7499C52.3262 50.5852 52.5198 50.3503 52.6341 50.0752C52.7483 49.8 52.778 49.497 52.7194 49.2049C52.6608 48.9128 52.5166 48.6447 52.305 48.4349Z" fill="#FEFBF5"/>
<path d="M36 44.9999H42C42.7956 44.9999 43.5587 44.6838 44.1213 44.1212C44.6839 43.5586 45 42.7955 45 41.9999V13.0499L41.55 6.70488C41.2832 6.24261 40.8979 5.8599 40.4338 5.59622C39.9697 5.33254 39.4437 5.19745 38.91 5.20488C38.3642 5.20921 37.83 5.36236 37.3648 5.64782C36.8996 5.93328 36.5211 6.34025 36.27 6.82488L33 13.0799V41.9999C33 42.7955 33.3161 43.5586 33.8787 44.1212C34.4413 44.6838 35.2044 44.9999 36 44.9999ZM36 13.7999L38.91 8.14488L42 13.8149V35.9999H36V13.7999ZM36 38.4449H42V42.1049H36V38.4449Z" fill="#FEFBF5"/>
</g>
<defs>
<clipPath id="clip0_1515_14732">
<rect width="54" height="54" fill="white"/>
</clipPath>
</defs>
</svg>
